<svg width="49" height="48" viewBox="0 0 49 48" fill="none" xmlns="http://www.w3.org/2000/svg">
<path d="M38.25 26C38.25 26.8284 37.5784 27.5 36.75 27.5C35.9216 27.5 35.25 26.8284 35.25 26C35.25 25.1716 35.9216 24.5 36.75 24.5C37.5784 24.5 38.25 25.1716 38.25 26Z" stroke="#333333"/>
<path d="M34.25 21.5H42.25C43.3546 21.5 44.25 22.3954 44.25 23.5V28.5C44.25 29.6046 43.3546 30.5 42.25 30.5H34.25C33.1454 30.5 32.25 29.6046 32.25 28.5V23.5C32.25 22.3954 33.1454 21.5 34.25 21.5Z" stroke="#333333"/>
<path d="M42.25 21.5V14.5C42.25 13.3954 41.3546 12.5 40.25 12.5H9.25C8.14543 12.5 7.25 11.6046 7.25 10.5V10.5" stroke="#333333" stroke-linecap="round"/>
<path d="M42.25 30.5V37.5C42.25 38.6046 41.3546 39.5 40.25 39.5H9.25C8.14543 39.5 7.25 38.6046 7.25 37.5V14.5" stroke="#333333" stroke-linecap="round"/>
<path d="M38.25 12.5V10.5C38.25 9.39543 37.3546 8.5 36.25 8.5H9.25C8.14543 8.5 7.25 9.39543 7.25 10.5V30.5" stroke="#333333" stroke-linecap="round"/>
</svg>
