<svg width="49" height="48" viewBox="0 0 49 48" fill="none" xmlns="http://www.w3.org/2000/svg">
<path d="M36.25 26.5C36.25 35.5 32.25 43.5 24.75 43.5" stroke="#333333" stroke-linecap="round"/>
<path d="M13.25 26.5C13.25 35.5 17.25 43.5 24.75 43.5" stroke="#333333" stroke-linecap="round"/>
<path d="M36.25 21.5004C36.25 6.5 32.25 14.5006 24.75 14.5006" stroke="#333333" stroke-linecap="round"/>
<path d="M13.25 21.5003C13.25 6.49994 17.25 14.5005 24.75 14.5005" stroke="#333333" stroke-linecap="round"/>
<path d="M7.25 20.5V27.5C7.25 28.6046 8.14543 29.5 9.25 29.5H11.25C12.3546 29.5 13.25 28.6046 13.25 27.5V20.5C13.25 19.3954 12.3546 18.5 11.25 18.5H9.25C8.14543 18.5 7.25 19.3954 7.25 20.5Z" stroke="#333333"/>
<path d="M11.25 18.5V18C11.25 10.5442 17.2942 4.5 24.75 4.5V4.5C32.2058 4.5 38.25 10.5442 38.25 18V18.5" stroke="#333333" stroke-linecap="round"/>
<path d="M36.25 20.5V27.5C36.25 28.6046 37.1454 29.5 38.25 29.5H40.25C41.3546 29.5 42.25 28.6046 42.25 27.5V20.5C42.25 19.3954 41.3546 18.5 40.25 18.5H38.25C37.1454 18.5 36.25 19.3954 36.25 20.5Z" stroke="#333333"/>
<path d="M24.75 38.5C26.1307 38.5 27.25 37.3807 27.25 36C27.25 34.6193 26.1307 33.5 24.75 33.5C23.3693 33.5 22.25 34.6193 22.25 36C22.25 37.3807 23.3693 38.5 24.75 38.5Z" stroke="#333333"/>
<path d="M38.25 29.5V29.5C38.25 33.0899 35.3399 36 31.75 36H27.25" stroke="#333333" stroke-linecap="round"/>
</svg>
